# xmcd CD database file
#
# Track frame offsets:
#	150
#	17590
#	39542
#	58230
#	82520
#	95179
#	110393
#	122471
#	144299
#	162685
#	175779
#	190364
#	206353
#	237686
#
# Disc length: 3418 seconds
#
# Revision: 2
# Processed by: cddbd v1.5.2PL0 Copyright (c) Steve Scherf et al.
# Submitted via: CDex 1.74
#
DISCID=bb0d580e
DTITLE=Greatest Disco Hits - Greatest Disco Hits CD 2
DYEAR=2015
DGENRE=Pop
TTITLE0=Bad Boys Blue - You're A Woman 98
TTITLE1=Chyp-Notic - Nothing compares 2 U
TTITLE2=Soultains - I heard it through the grapevine
TTITLE3=Silver Convention - Fly Robin Fly
TTITLE4=5000 Volts - I'm on fire
TTITLE5=Tony Christie - (Is this the way to) Amarillo
TTITLE6=John Kincade - Dreams are ten a penny
TTITLE7=First Class - Beach baby
TTITLE8=Les Humphries Singers - Mexico
TTITLE9=Middle of the Road - Sacramento (A Wonderful Town)
TTITLE10=George McCrae - Rock your baby
TTITLE11=Limahl - Never ending story
TTITLE12=Kelly Marie - Feels like I'm in love
TTITLE13=Four Tops - Loco in Acapulco
EXTD=YEAR: 2015
EXTT0=
EXTT1=
EXTT2=
EXTT3=
EXTT4=
EXTT5=
EXTT6=
EXTT7=
EXTT8=
EXTT9=
EXTT10=
EXTT11=
EXTT12=
EXTT13=
PLAYORDER=
